<?xml version="1.0" encoding="UTF-8"?>
<svg xmlns="http://www.w3.org/2000/svg" width="1480" height="2702" viewBox="0 0 1480 2702" role="img" aria-labelledby="svg-title svg-desc">
  <title id="svg-title">TRACE-RPG claim ledger status</title>
  <desc id="svg-desc">Every tracked claim with its current epistemic state. C-RESULT-001 through C-RESULT-005 have no confirmatory result and remain TODO-RESULT; screening receipts are reported only under their pilot claim IDs.</desc>
  <defs>
    <marker id="arrow-blue" markerWidth="10" markerHeight="10" refX="8" refY="3" orient="auto" markerUnits="strokeWidth"><path d="M0,0 L0,6 L9,3 z" fill="#0072B2"/></marker>
    <marker id="arrow-orange" markerWidth="10" markerHeight="10" refX="8" refY="3" orient="auto" markerUnits="strokeWidth"><path d="M0,0 L0,6 L9,3 z" fill="#E69F00"/></marker>
    <marker id="arrow-green" markerWidth="10" markerHeight="10" refX="8" refY="3" orient="auto" markerUnits="strokeWidth"><path d="M0,0 L0,6 L9,3 z" fill="#009E73"/></marker>
    <marker id="arrow-gray" markerWidth="10" markerHeight="10" refX="8" refY="3" orient="auto" markerUnits="strokeWidth"><path d="M0,0 L0,6 L9,3 z" fill="#7A7A7A"/></marker>
    <style>
      text { font-family: Helvetica, Arial, sans-serif; fill: #202124; }
      .section { font-size: 28px; font-weight: 700; }
      .box-title { font-size: 26px; font-weight: 700; }
      .body { font-size: 25px; font-weight: 400; }
      .small { font-size: 24px; font-weight: 400; }
      .note { font-size: 24px; font-style: italic; fill: #5F6368; }
      .arrow-label { font-size: 24px; font-weight: 700; }
    </style>
  </defs>
  <rect x="0" y="0" width="1480" height="2702" fill="#FFFFFF"/>
  <rect x="0" y="0" width="1480" height="96" rx="0" fill="#F7F7F5" stroke="#C9CDD1" stroke-width="0"/>
  <rect x="0" y="0" width="10" height="96" fill="#0072B2"/>
  <text x="34" y="42" class="section" text-anchor="start">V4 · What is actually claimed, and on what evidence</text>
  <text x="34" y="74" class="small" text-anchor="start" fill="#5F6368">Source: research/claim-ledger.yaml   ·   a designed-fixture claim never promotes itself to an efficacy claim</text>
  <line class="connector" x1="0" y1="96" x2="1480" y2="96" stroke="#C9CDD1" stroke-width="2" fill="none"/>
  <rect x="40" y="136" width="1400" height="104" rx="7" fill="#E8F5EF" stroke="#009E73" stroke-width="2"/>
  <rect x="40" y="136" width="8" height="104" fill="#009E73"/>
  <text x="66" y="170" class="box-title" text-anchor="start">C-DATA-001</text>
  <rect x="66" y="184" width="300" height="36" rx="18" fill="#FFFFFF" stroke="#009E73" stroke-width="2"/>
  <text x="216" y="209" class="small" text-anchor="middle">Verified · primary source</text>
  <text x="400" y="170" class="small" text-anchor="start">KNUDGE evaluates branching NPC dialogue against quest and entity specifications from The</text>
  <text x="400" y="197" class="small" text-anchor="start">Outer Worlds.</text>
  <text x="400" y="226" class="note" text-anchor="start">evidence: knudge-2022</text>
  <rect x="40" y="252" width="1400" height="104" rx="7" fill="#E8F5EF" stroke="#009E73" stroke-width="2"/>
  <rect x="40" y="252" width="8" height="104" fill="#009E73"/>
  <text x="66" y="286" class="box-title" text-anchor="start">C-METHOD-001</text>
  <rect x="66" y="300" width="300" height="36" rx="18" fill="#FFFFFF" stroke="#009E73" stroke-width="2"/>
  <text x="216" y="325" class="small" text-anchor="middle">Verified · narrower scope</text>
  <text x="400" y="286" class="small" text-anchor="start">LLM proposals can be incrementally grounded by symbolic validation for playable IF world</text>
  <text x="400" y="313" class="small" text-anchor="start">generation.</text>
  <text x="400" y="342" class="note" text-anchor="start">evidence: ivie-2026</text>
  <rect x="40" y="368" width="1400" height="104" rx="7" fill="#E8F5EF" stroke="#009E73" stroke-width="2"/>
  <rect x="40" y="368" width="8" height="104" fill="#009E73"/>
  <text x="66" y="402" class="box-title" text-anchor="start">C-METHOD-002</text>
  <rect x="66" y="416" width="300" height="36" rx="18" fill="#FFFFFF" stroke="#009E73" stroke-width="2"/>
  <text x="216" y="441" class="small" text-anchor="middle">Verified · narrower scope</text>
  <text x="400" y="402" class="small" text-anchor="start">The benefit of symbolic dialogue scaffolding can depend on NPC role and does not universally</text>
  <text x="400" y="429" class="small" text-anchor="start">improve player experience.</text>
  <text x="400" y="458" class="note" text-anchor="start">evidence: scaffolded-play-2025</text>
  <rect x="40" y="484" width="1400" height="104" rx="7" fill="#FFF2DD" stroke="#E69F00" stroke-width="2"/>
  <rect x="40" y="484" width="8" height="104" fill="#E69F00"/>
  <text x="66" y="518" class="box-title" text-anchor="start">C-AFFECT-001</text>
  <rect x="66" y="532" width="300" height="36" rx="18" fill="#FFFFFF" stroke="#E69F00" stroke-width="2"/>
  <text x="216" y="557" class="small" text-anchor="middle">Verified · preprint, narrow scope</text>
  <text x="400" y="518" class="small" text-anchor="start">A recent 2026 preprint reports a perception-understanding gap for engagement inference in</text>
  <text x="400" y="545" class="small" text-anchor="start">the games it evaluates.</text>
  <text x="400" y="574" class="note" text-anchor="start">evidence: gamevibe-vlm-2026</text>
  <rect x="40" y="600" width="1400" height="104" rx="7" fill="#EAF4FA" stroke="#0072B2" stroke-width="2"/>
  <rect x="40" y="600" width="8" height="104" fill="#0072B2"/>
  <text x="66" y="634" class="box-title" text-anchor="start">C-PILOT-001</text>
  <rect x="66" y="648" width="300" height="36" rx="18" fill="#FFFFFF" stroke="#0072B2" stroke-width="2"/>
  <text x="216" y="673" class="small" text-anchor="middle">Verified · designed fixture</text>
  <text x="400" y="634" class="small" text-anchor="start">In the authored Stage 4 fixtures, the loader-enforced set covered all 12 implemented error</text>
  <text x="400" y="661" class="small" text-anchor="start">codes and observed outcomes matched 13/13 authored expectations; this is authored-oracle</text>
  <text x="400" y="690" class="note" text-anchor="start">evidence: pilot-results.json, sha256-manifest.json</text>
  <rect x="40" y="716" width="1400" height="104" rx="7" fill="#EAF4FA" stroke="#0072B2" stroke-width="2"/>
  <rect x="40" y="716" width="8" height="104" fill="#0072B2"/>
  <text x="66" y="750" class="box-title" text-anchor="start">C-PILOT-002</text>
  <rect x="66" y="764" width="300" height="36" rx="18" fill="#FFFFFF" stroke="#0072B2" stroke-width="2"/>
  <text x="216" y="789" class="small" text-anchor="middle">Verified · designed fixture</text>
  <text x="400" y="750" class="small" text-anchor="start">Across the 12 authored initially-invalid repair cases at matched budget K=1, rejection-only</text>
  <text x="400" y="777" class="small" text-anchor="start">committed 0/12 and unchanged retry committed 0/12, while counterexample-guided repair</text>
  <text x="400" y="806" class="note" text-anchor="start">evidence: pilot-results.json, repair-arms.csv, repair-arm-summary.csv</text>
  <rect x="40" y="832" width="1400" height="104" rx="7" fill="#EAF4FA" stroke="#0072B2" stroke-width="2"/>
  <rect x="40" y="832" width="8" height="104" fill="#0072B2"/>
  <text x="66" y="866" class="box-title" text-anchor="start">C-PILOT-006</text>
  <rect x="66" y="880" width="300" height="36" rx="18" fill="#FFFFFF" stroke="#0072B2" stroke-width="2"/>
  <text x="216" y="905" class="small" text-anchor="middle">Verified · designed fixture</text>
  <text x="400" y="866" class="small" text-anchor="start">Per frozen repairability class, guided repair committed 5/5 guided_repairable, 0/1</text>
  <text x="400" y="893" class="small" text-anchor="start">oracle_only, and 0/6 irreparable, while the oracle arm additionally committed the single</text>
  <text x="400" y="922" class="note" text-anchor="start">evidence: repair-class-summary.csv, pilot-results.json</text>
  <rect x="40" y="948" width="1400" height="104" rx="7" fill="#EAF4FA" stroke="#0072B2" stroke-width="2"/>
  <rect x="40" y="948" width="8" height="104" fill="#0072B2"/>
  <text x="66" y="982" class="box-title" text-anchor="start">C-PILOT-003</text>
  <rect x="66" y="996" width="300" height="36" rx="18" fill="#FFFFFF" stroke="#0072B2" stroke-width="2"/>
  <text x="216" y="1021" class="small" text-anchor="middle">Verified · designed fixture</text>
  <text x="400" y="982" class="small" text-anchor="start">All 10 faults prespecified as detectable were rejected by their designated operations</text>
  <text x="400" y="1009" class="small" text-anchor="start">without detector-layer attribution, while substitution of a different invalid precursor</text>
  <text x="400" y="1038" class="note" text-anchor="start">evidence: pilot-results.json, integrity-faults.csv, integrity-boundaries.csv</text>
  <rect x="40" y="1064" width="1400" height="104" rx="7" fill="#EAF4FA" stroke="#0072B2" stroke-width="2"/>
  <rect x="40" y="1064" width="8" height="104" fill="#0072B2"/>
  <text x="66" y="1098" class="box-title" text-anchor="start">C-PILOT-004</text>
  <rect x="66" y="1112" width="300" height="36" rx="18" fill="#FFFFFF" stroke="#0072B2" stroke-width="2"/>
  <text x="216" y="1137" class="small" text-anchor="middle">Verified · designed fixture</text>
  <text x="400" y="1098" class="small" text-anchor="start">The seven authored adapter/accounting assignments yielded 1 commit, 1 symbolic fallback, and</text>
  <text x="400" y="1125" class="small" text-anchor="start">5 adapter failures, and all 3 injected assignment guards rejected.</text>
  <text x="400" y="1154" class="note" text-anchor="start">evidence: pilot-results.json, adapter-accounting.csv, accounting-guards.csv</text>
  <rect x="40" y="1180" width="1400" height="104" rx="7" fill="#EAF4FA" stroke="#0072B2" stroke-width="2"/>
  <rect x="40" y="1180" width="8" height="104" fill="#0072B2"/>
  <text x="66" y="1214" class="box-title" text-anchor="start">C-PILOT-005</text>
  <rect x="66" y="1228" width="300" height="36" rx="18" fill="#FFFFFF" stroke="#0072B2" stroke-width="2"/>
  <text x="216" y="1253" class="small" text-anchor="middle">Verified · designed fixture</text>
  <text x="400" y="1214" class="small" text-anchor="start">The frozen Stage 4 manifest binds 121 provenance records (85 executed fixture rows and 36</text>
  <text x="400" y="1241" class="small" text-anchor="start">aggregate rows), including the closed unknown-key regression and fault-specific input</text>
  <text x="400" y="1270" class="note" text-anchor="start">evidence: pilot-assignment-manifest.json, sha256-manifest.json</text>
  <rect x="40" y="1296" width="1400" height="104" rx="7" fill="#EAF4FA" stroke="#0072B2" stroke-width="2"/>
  <rect x="40" y="1296" width="8" height="104" fill="#0072B2"/>
  <text x="66" y="1330" class="box-title" text-anchor="start">C-GAME-DESIGN-002</text>
  <rect x="66" y="1344" width="300" height="36" rx="18" fill="#FFFFFF" stroke="#0072B2" stroke-width="2"/>
  <text x="216" y="1369" class="small" text-anchor="middle">Verified · authored engine fixture</text>
  <text x="400" y="1330" class="small" text-anchor="start">The engine-local Godot evidence comprises four authored fixtures. The canonical,</text>
  <text x="400" y="1357" class="small" text-anchor="start">duplicate-ID, and timeout fixtures completed their declared multi-step, failure-isolation,</text>
  <text x="400" y="1386" class="note" text-anchor="start">evidence: experimental-game.yaml, stage-06-peer-review-simulation.md, godot-headless.md,</text>
  <rect x="40" y="1412" width="1400" height="104" rx="7" fill="#EAF4FA" stroke="#0072B2" stroke-width="2"/>
  <rect x="40" y="1412" width="8" height="104" fill="#0072B2"/>
  <text x="66" y="1446" class="box-title" text-anchor="start">C-GAME-DESIGN-003</text>
  <rect x="66" y="1460" width="300" height="36" rx="18" fill="#FFFFFF" stroke="#0072B2" stroke-width="2"/>
  <text x="216" y="1485" class="small" text-anchor="middle">Verified · authored engine render fixture</text>
  <text x="400" y="1446" class="small" text-anchor="start">In the retained Godot 4.7.1 render packet, three non-headless 1280x720 primary-track PNGs</text>
  <text x="400" y="1473" class="small" text-anchor="start">are content-hashed and bound to canonical scripted-fixture event IDs, delivery indices,</text>
  <text x="400" y="1502" class="note" text-anchor="start">evidence: current.json, evidence-manifest.json, capture-manifest.json,</text>
  <rect x="40" y="1528" width="1400" height="104" rx="7" fill="#FFF2DD" stroke="#E69F00" stroke-width="2"/>
  <rect x="40" y="1528" width="8" height="104" fill="#E69F00"/>
  <text x="66" y="1562" class="box-title" text-anchor="start">C-GAME-DESIGN-001</text>
  <rect x="66" y="1576" width="300" height="36" rx="18" fill="#FFFFFF" stroke="#E69F00" stroke-width="2"/>
  <text x="216" y="1601" class="small" text-anchor="middle">Approved · design protocol</text>
  <text x="400" y="1562" class="small" text-anchor="start">The approved Sealed Lighthouse protocol separates a structured-state/text primary track from</text>
  <text x="400" y="1589" class="small" text-anchor="start">a frozen-image VLM/UI secondary track, with image generation prohibited during experiment</text>
  <text x="400" y="1618" class="note" text-anchor="start">evidence: experimental-game.yaml, asset-manifest.json,</text>
  <rect x="40" y="1644" width="1400" height="104" rx="7" fill="#FFF2DD" stroke="#E69F00" stroke-width="2"/>
  <rect x="40" y="1644" width="8" height="104" fill="#E69F00"/>
  <text x="66" y="1678" class="box-title" text-anchor="start">C-SYSTEM-001</text>
  <rect x="66" y="1692" width="300" height="36" rx="18" fill="#FFFFFF" stroke="#E69F00" stroke-width="2"/>
  <text x="216" y="1717" class="small" text-anchor="middle">Proposed contribution</text>
  <text x="400" y="1678" class="small" text-anchor="start">TRACE-RPG treats encoded hard predicates as a pre-commit gate while narrative, affect,</text>
  <text x="400" y="1705" class="small" text-anchor="start">retrieval, and memory signals remain non-authoritative proposal context.</text>
  <text x="400" y="1734" class="note" text-anchor="start">evidence: ivie-2026</text>
  <rect x="40" y="1760" width="1400" height="104" rx="7" fill="#FFF2DD" stroke="#E69F00" stroke-width="2"/>
  <rect x="40" y="1760" width="8" height="104" fill="#E69F00"/>
  <text x="66" y="1794" class="box-title" text-anchor="start">C-PILOT-007</text>
  <rect x="66" y="1808" width="300" height="36" rx="18" fill="#FFFFFF" stroke="#E69F00" stroke-width="2"/>
  <text x="216" y="1833" class="small" text-anchor="middle">Pilot-only · screening evidence</text>
  <text x="400" y="1794" class="small" text-anchor="start">Executed live screening pilot (gpt-5.6-sol via the Codex CLI, 5 seeds per cell, matched</text>
  <text x="400" y="1821" class="small" text-anchor="start">budget K=1, one proposal shared by both arms). The guided-vs-blind separation is</text>
  <text x="400" y="1850" class="note" text-anchor="start">evidence: summary.json, summary.json, summary.json, summary.json,</text>
  <rect x="40" y="1876" width="1400" height="104" rx="7" fill="#FFF2DD" stroke="#E69F00" stroke-width="2"/>
  <rect x="40" y="1876" width="8" height="104" fill="#E69F00"/>
  <text x="66" y="1910" class="box-title" text-anchor="start">C-PILOT-008</text>
  <rect x="66" y="1924" width="300" height="36" rx="18" fill="#FFFFFF" stroke="#E69F00" stroke-width="2"/>
  <text x="216" y="1949" class="small" text-anchor="middle">Pilot-only · screening evidence</text>
  <text x="400" y="1910" class="small" text-anchor="start">In the live pilot, proposer errors co-occurred rather than appearing singly, and a single</text>
  <text x="400" y="1937" class="small" text-anchor="start">guided-irreparable code blocked commit even when the repairable codes were cleared. On the</text>
  <text x="400" y="1966" class="note" text-anchor="start">evidence: results.jsonl, promotion-manifest.json</text>
  <rect x="40" y="1992" width="1400" height="104" rx="7" fill="#EEF0F2" stroke="#7A7A7A" stroke-width="2"/>
  <rect x="40" y="1992" width="8" height="104" fill="#7A7A7A"/>
  <text x="66" y="2026" class="box-title" text-anchor="start">C-RESULT-001</text>
  <rect x="66" y="2040" width="300" height="36" rx="18" fill="#FFFFFF" stroke="#7A7A7A" stroke-width="2"/>
  <text x="216" y="2065" class="small" text-anchor="middle">TODO-RESULT · no confirmatory result</text>
  <text x="400" y="2026" class="small" text-anchor="start">TRACE-RPG reduces hard violations versus LLM-only baselines.</text>
  <text x="400" y="2082" class="note" text-anchor="start">evidence: none recorded</text>
  <rect x="40" y="2108" width="1400" height="104" rx="7" fill="#EEF0F2" stroke="#7A7A7A" stroke-width="2"/>
  <rect x="40" y="2108" width="8" height="104" fill="#7A7A7A"/>
  <text x="66" y="2142" class="box-title" text-anchor="start">C-RESULT-002</text>
  <rect x="66" y="2156" width="300" height="36" rx="18" fill="#FFFFFF" stroke="#7A7A7A" stroke-width="2"/>
  <text x="216" y="2181" class="small" text-anchor="middle">TODO-RESULT · no confirmatory result</text>
  <text x="400" y="2142" class="small" text-anchor="start">Affect adaptation improves target-curve tracking without validity regression.</text>
  <text x="400" y="2198" class="note" text-anchor="start">evidence: none recorded</text>
  <rect x="40" y="2224" width="1400" height="104" rx="7" fill="#EEF0F2" stroke="#7A7A7A" stroke-width="2"/>
  <rect x="40" y="2224" width="8" height="104" fill="#7A7A7A"/>
  <text x="66" y="2258" class="box-title" text-anchor="start">C-RESULT-003</text>
  <rect x="66" y="2272" width="300" height="36" rx="18" fill="#FFFFFF" stroke="#7A7A7A" stroke-width="2"/>
  <text x="216" y="2297" class="small" text-anchor="middle">TODO-RESULT · no confirmatory result</text>
  <text x="400" y="2258" class="small" text-anchor="start">Structured counterexample repair is more sample-efficient than blind retry at matched K.</text>
  <text x="400" y="2314" class="note" text-anchor="start">evidence: summary.json, results.jsonl, promotion-manifest.json, repair-arm-summary.csv</text>
  <rect x="40" y="2340" width="1400" height="104" rx="7" fill="#EEF0F2" stroke="#7A7A7A" stroke-width="2"/>
  <rect x="40" y="2340" width="8" height="104" fill="#7A7A7A"/>
  <text x="66" y="2374" class="box-title" text-anchor="start">C-RESULT-004</text>
  <rect x="66" y="2388" width="300" height="36" rx="18" fill="#FFFFFF" stroke="#7A7A7A" stroke-width="2"/>
  <text x="216" y="2413" class="small" text-anchor="middle">TODO-RESULT · no confirmatory result</text>
  <text x="400" y="2374" class="small" text-anchor="start">Graph retrieval plus event-sourced temporal memory reduces long-horizon contradictions at</text>
  <text x="400" y="2401" class="small" text-anchor="start">matched validity.</text>
  <text x="400" y="2430" class="note" text-anchor="start">evidence: none recorded</text>
  <rect x="40" y="2456" width="1400" height="104" rx="7" fill="#EEF0F2" stroke="#7A7A7A" stroke-width="2"/>
  <rect x="40" y="2456" width="8" height="104" fill="#7A7A7A"/>
  <text x="66" y="2490" class="box-title" text-anchor="start">C-RESULT-005</text>
  <rect x="66" y="2504" width="300" height="36" rx="18" fill="#FFFFFF" stroke="#7A7A7A" stroke-width="2"/>
  <text x="216" y="2529" class="small" text-anchor="middle">TODO-RESULT · no confirmatory result</text>
  <text x="400" y="2490" class="small" text-anchor="start">The controller effect is directionally consistent across model access and scale strata.</text>
  <text x="400" y="2546" class="note" text-anchor="start">evidence: none recorded</text>
  <rect x="40" y="2582" width="1400" height="76" rx="7" fill="#F7F7F5" stroke="#C9CDD1" stroke-width="2"/>
  <text x="66" y="2618" class="small" text-anchor="start">Verified · primary source: 1   ·   Verified · narrower scope: 2   ·   Verified · preprint, narrow scope: 1   ·   Verified · designed fixture: 6   ·   Verified · authored engine fixture: 1   ·   Verified · authored engine render fixture: 1   ·   Approved · design protocol: 1   ·   Proposed contribution: 1   ·   Pilot-only · screening evidence: 2   ·   TODO-RESULT · no confirmatory result: 5</text>
  <text x="66" y="2646" class="note" text-anchor="start">Pilot and screening data cannot transition directly to verified-empirical; a verified result is revoked if an upstream hash changes.</text>
</svg>
